<svg width="1920" height="1080" viewBox="0 0 1920 1080" xmlns="http://www.w3.org/2000/svg"><rect width="1920" height="1080" fill="#7e22ce"/><path d="M 0,1080 C 0,1080 0,216 0,216 C 114.44358974358971,222.10000000000002 228.88717948717942,228.20000000000002 346,205 C 463.1128205128206,181.79999999999998 582.8948717948718,129.29999999999998 674,158 C 765.1051282051282,186.70000000000002 827.5333333333333,296.6 943,294 C 1058.4666666666667,291.4 1226.9717948717948,176.29999999999998 1328,161 C 1429.0282051282052,145.70000000000002 1462.5794871794872,230.20000000000005 1550,256 C 1637.4205128205128,281.79999999999995 1778.7102564102565,248.89999999999998 1920,216 C 1920,216 1920,1080 1920,1080 Z" fill="#3d1053" opacity="0.12"/><path d="M 0,1080 C 0,1080 0,432 0,432 C 114.22051282051285,427.1461538461538 228.4410256410257,422.29230769230765 319,427 C 409.5589743589743,431.70769230769235 476.4564102564101,445.97692307692313 598,464 C 719.5435897435899,482.02307692307687 895.7333333333333,503.79999999999995 1015,511 C 1134.2666666666667,518.2 1196.6102564102566,510.82307692307694 1297,507 C 1397.3897435897434,503.17692307692306 1535.8256410256408,502.9076923076923 1646,491 C 1756.1743589743592,479.0923076923077 1838.0871794871796,455.54615384615386 1920,432 C 1920,432 1920,1080 1920,1080 Z" fill="#3d1053" opacity="0.24"/><path d="M 0,1080 C 0,1080 0,648 0,648 C 113.24102564102563,672.6923076923076 226.48205128205126,697.3846153846154 324,671 C 421.51794871794874,644.6153846153846 503.3128205128206,567.1538461538462 598,576 C 692.6871794871794,584.8461538461538 800.2666666666667,680.0000000000001 916,706 C 1031.7333333333333,731.9999999999999 1155.6205128205129,688.8461538461538 1277,672 C 1398.3794871794871,655.1538461538462 1517.2512820512823,664.6153846153846 1624,665 C 1730.7487179487177,665.3846153846154 1825.374358974359,656.6923076923076 1920,648 C 1920,648 1920,1080 1920,1080 Z" fill="#3d1053" opacity="0.36"/><path d="M 0,1080 C 0,1080 0,864 0,864 C 116.99230769230766,914.0410256410256 233.98461538461532,964.0820512820512 339,943 C 444.0153846153847,921.9179487179488 537.0538461538462,829.7128205128205 621,823 C 704.9461538461538,816.2871794871795 779.8,895.0666666666667 902,902 C 1024.2,908.9333333333333 1193.7461538461541,844.0205128205127 1300,840 C 1406.2538461538459,835.9794871794873 1449.2153846153847,892.851282051282 1542,907 C 1634.7846153846153,921.148717948718 1777.3923076923077,892.574358974359 1920,864 C 1920,864 1920,1080 1920,1080 Z" fill="#3d1053" opacity="0.48"/></svg>